<svg width="44" height="17" viewBox="0 0 44 17" fill="none" xmlns="http://www.w3.org/2000/svg">
<path d="M39.0546 0.899994H43.0106V17H39.0546V0.899994Z" fill="#352CE8"/>
<path d="M22.1864 0.899994H26.1884V17H22.1864V0.899994ZM27.9364 17H24.7624V13.55H27.7984C28.4117 13.55 29.0021 13.4733 29.5694 13.32C30.1521 13.1667 30.6581 12.9137 31.0874 12.561C31.5321 12.2083 31.8847 11.7407 32.1454 11.158C32.4061 10.56 32.5364 9.824 32.5364 8.95C32.5364 8.076 32.4061 7.34766 32.1454 6.76499C31.8847 6.16699 31.5321 5.69166 31.0874 5.33899C30.6581 4.98633 30.1521 4.73333 29.5694 4.58C29.0021 4.42666 28.4117 4.34999 27.7984 4.34999H24.7624V0.899994H27.9364C29.6997 0.899994 31.2254 1.22966 32.5134 1.889C33.8014 2.54833 34.7981 3.476 35.5034 4.672C36.2087 5.86799 36.5614 7.29399 36.5614 8.95C36.5614 10.5907 36.2087 12.0167 35.5034 13.228C34.7981 14.424 33.8014 15.3517 32.5134 16.011C31.2254 16.6703 29.6997 17 27.9364 17Z" fill="#352CE8"/>
<path d="M5.84198 8.789L4.87598 17H0.781982L3.38098 0.0950012L10.235 9.916L17.112 0.0950012L19.711 17H15.617L14.651 8.789L10.235 15.505L5.84198 8.789Z" fill="#352CE8"/>
</svg>
